<svg xmlns="http://www.w3.org/2000/svg" width="1280" height="560" viewBox="0 0 1280 560">
<rect width="100%" height="100%" fill="white"/>
<text x="640.0" y="30.0" font-family="Arial, sans-serif" font-size="18" text-anchor="middle">Median solve time by difficulty</text>
<line x1="82" y1="400" x2="902" y2="400" stroke="black"/>
<line x1="82" y1="58" x2="82" y2="400" stroke="black"/>
<text transform="rotate(-90 18 230)" x="18.0" y="229.0" font-family="Arial, sans-serif" font-size="12" text-anchor="middle">Median ms</text>
<line x1="77" y1="400.0" x2="902" y2="400.0" stroke="#ddd"/>
<text x="72.0" y="404.0" font-family="Arial, sans-serif" font-size="10" text-anchor="end">0.0</text>
<line x1="77" y1="314.5" x2="902" y2="314.5" stroke="#ddd"/>
<text x="72.0" y="318.5" font-family="Arial, sans-serif" font-size="10" text-anchor="end">36.2</text>
<line x1="77" y1="229.0" x2="902" y2="229.0" stroke="#ddd"/>
<text x="72.0" y="233.0" font-family="Arial, sans-serif" font-size="10" text-anchor="end">72.4</text>
<line x1="77" y1="143.5" x2="902" y2="143.5" stroke="#ddd"/>
<text x="72.0" y="147.5" font-family="Arial, sans-serif" font-size="10" text-anchor="end">108.6</text>
<line x1="77" y1="58.0" x2="902" y2="58.0" stroke="#ddd"/>
<text x="72.0" y="62.0" font-family="Arial, sans-serif" font-size="10" text-anchor="end">144.7</text>
<text x="184.5" y="430.0" font-family="Arial, sans-serif" font-size="12" text-anchor="middle">easy</text>
<rect x="122.0" y="397.1" width="22.0" height="2.9" fill="#7f8c8d"><title>Plain recursive: 1.219</title></rect>
<rect x="147.0" y="397.0" width="22.0" height="3.0" fill="#4c78a8"><title>Heuristic V1: propagation + MRV: 1.256</title></rect>
<rect x="172.0" y="392.0" width="22.0" height="8.0" fill="#f58518"><title>Proposed V2: adaptive locked sets: 3.389</title></rect>
<rect x="197.0" y="387.5" width="22.0" height="12.5" fill="#54a24b"><title>Gurobi default: 5.292</title></rect>
<rect x="222.0" y="387.8" width="22.0" height="12.2" fill="#b279a2"><title>Gurobi heuristic mode: 5.157</title></rect>
<text x="389.5" y="430.0" font-family="Arial, sans-serif" font-size="12" text-anchor="middle">medium</text>
<rect x="327.0" y="393.7" width="22.0" height="6.3" fill="#7f8c8d"><title>Plain recursive: 2.664</title></rect>
<rect x="352.0" y="396.9" width="22.0" height="3.1" fill="#4c78a8"><title>Heuristic V1: propagation + MRV: 1.332</title></rect>
<rect x="377.0" y="391.8" width="22.0" height="8.2" fill="#f58518"><title>Proposed V2: adaptive locked sets: 3.484</title></rect>
<rect x="402.0" y="387.7" width="22.0" height="12.3" fill="#54a24b"><title>Gurobi default: 5.196</title></rect>
<rect x="427.0" y="388.0" width="22.0" height="12.0" fill="#b279a2"><title>Gurobi heuristic mode: 5.073</title></rect>
<text x="594.5" y="430.0" font-family="Arial, sans-serif" font-size="12" text-anchor="middle">hard</text>
<rect x="532.0" y="344.5" width="22.0" height="55.5" fill="#7f8c8d"><title>Plain recursive: 23.480</title></rect>
<rect x="557.0" y="395.8" width="22.0" height="4.2" fill="#4c78a8"><title>Heuristic V1: propagation + MRV: 1.786</title></rect>
<rect x="582.0" y="389.2" width="22.0" height="10.8" fill="#f58518"><title>Proposed V2: adaptive locked sets: 4.554</title></rect>
<rect x="607.0" y="388.3" width="22.0" height="11.7" fill="#54a24b"><title>Gurobi default: 4.931</title></rect>
<rect x="632.0" y="388.6" width="22.0" height="11.4" fill="#b279a2"><title>Gurobi heuristic mode: 4.837</title></rect>
<text x="799.5" y="430.0" font-family="Arial, sans-serif" font-size="12" text-anchor="middle">expert</text>
<rect x="737.0" y="58.0" width="22.0" height="342.0" fill="#7f8c8d"><title>Plain recursive: 144.747</title></rect>
<rect x="762.0" y="392.5" width="22.0" height="7.5" fill="#4c78a8"><title>Heuristic V1: propagation + MRV: 3.194</title></rect>
<rect x="787.0" y="384.9" width="22.0" height="15.1" fill="#f58518"><title>Proposed V2: adaptive locked sets: 6.402</title></rect>
<rect x="812.0" y="387.5" width="22.0" height="12.5" fill="#54a24b"><title>Gurobi default: 5.284</title></rect>
<rect x="837.0" y="388.1" width="22.0" height="11.9" fill="#b279a2"><title>Gurobi heuristic mode: 5.052</title></rect>
<rect x="922" y="62" width="315" height="163" fill="#fff" stroke="#ddd"/>
<text x="940.0" y="83.0" font-family="Arial, sans-serif" font-size="12" text-anchor="start">Solver</text>
<rect x="940" y="101" width="13" height="13" fill="#7f8c8d"/>
<text x="961.0" y="112.0" font-family="Arial, sans-serif" font-size="12" text-anchor="start">Plain recursive</text>
<rect x="940" y="126" width="13" height="13" fill="#4c78a8"/>
<text x="961.0" y="137.0" font-family="Arial, sans-serif" font-size="12" text-anchor="start">Heuristic V1: propagation + MRV</text>
<rect x="940" y="151" width="13" height="13" fill="#f58518"/>
<text x="961.0" y="162.0" font-family="Arial, sans-serif" font-size="12" text-anchor="start">Proposed V2: adaptive locked sets</text>
<rect x="940" y="176" width="13" height="13" fill="#54a24b"/>
<text x="961.0" y="187.0" font-family="Arial, sans-serif" font-size="12" text-anchor="start">Gurobi default</text>
<rect x="940" y="201" width="13" height="13" fill="#b279a2"/>
<text x="961.0" y="212.0" font-family="Arial, sans-serif" font-size="12" text-anchor="start">Gurobi heuristic mode</text>
</svg>