<svg xmlns="http://www.w3.org/2000/svg" width="1280" height="560" viewBox="0 0 1280 560">
<rect width="100%" height="100%" fill="white"/>
<text x="640.0" y="30.0" font-family="Arial, sans-serif" font-size="18" text-anchor="middle">Search effort proxy by difficulty</text>
<line x1="82" y1="400" x2="902" y2="400" stroke="black"/>
<line x1="82" y1="58" x2="82" y2="400" stroke="black"/>
<text transform="rotate(-90 18 230)" x="18.0" y="229.0" font-family="Arial, sans-serif" font-size="12" text-anchor="middle">Median decisions</text>
<line x1="77" y1="400.0" x2="902" y2="400.0" stroke="#ddd"/>
<text x="72.0" y="404.0" font-family="Arial, sans-serif" font-size="10" text-anchor="end">0.0</text>
<line x1="77" y1="314.5" x2="902" y2="314.5" stroke="#ddd"/>
<text x="72.0" y="318.5" font-family="Arial, sans-serif" font-size="10" text-anchor="end">38686.4</text>
<line x1="77" y1="229.0" x2="902" y2="229.0" stroke="#ddd"/>
<text x="72.0" y="233.0" font-family="Arial, sans-serif" font-size="10" text-anchor="end">77372.8</text>
<line x1="77" y1="143.5" x2="902" y2="143.5" stroke="#ddd"/>
<text x="72.0" y="147.5" font-family="Arial, sans-serif" font-size="10" text-anchor="end">116059.1</text>
<line x1="77" y1="58.0" x2="902" y2="58.0" stroke="#ddd"/>
<text x="72.0" y="62.0" font-family="Arial, sans-serif" font-size="10" text-anchor="end">154745.5</text>
<text x="184.5" y="430.0" font-family="Arial, sans-serif" font-size="12" text-anchor="middle">easy</text>
<rect x="122.0" y="397.4" width="22.0" height="2.6" fill="#7f8c8d"><title>Plain recursive: 1160.000</title></rect>
<rect x="147.0" y="400.0" width="22.0" height="0.0" fill="#4c78a8"><title>Heuristic V1: propagation + MRV: 0.000</title></rect>
<rect x="172.0" y="400.0" width="22.0" height="0.0" fill="#f58518"><title>Proposed V2: adaptive locked sets: 0.000</title></rect>
<rect x="197.0" y="400.0" width="22.0" height="0.0" fill="#54a24b"><title>Gurobi default: 0.000</title></rect>
<rect x="222.0" y="400.0" width="22.0" height="0.0" fill="#b279a2"><title>Gurobi heuristic mode: 0.000</title></rect>
<text x="389.5" y="430.0" font-family="Arial, sans-serif" font-size="12" text-anchor="middle">medium</text>
<rect x="327.0" y="393.8" width="22.0" height="6.2" fill="#7f8c8d"><title>Plain recursive: 2797.000</title></rect>
<rect x="352.0" y="400.0" width="22.0" height="0.0" fill="#4c78a8"><title>Heuristic V1: propagation + MRV: 0.000</title></rect>
<rect x="377.0" y="400.0" width="22.0" height="0.0" fill="#f58518"><title>Proposed V2: adaptive locked sets: 0.000</title></rect>
<rect x="402.0" y="400.0" width="22.0" height="0.0" fill="#54a24b"><title>Gurobi default: 0.000</title></rect>
<rect x="427.0" y="400.0" width="22.0" height="0.0" fill="#b279a2"><title>Gurobi heuristic mode: 0.000</title></rect>
<text x="594.5" y="430.0" font-family="Arial, sans-serif" font-size="12" text-anchor="middle">hard</text>
<rect x="532.0" y="343.3" width="22.0" height="56.7" fill="#7f8c8d"><title>Plain recursive: 25649.000</title></rect>
<rect x="557.0" y="400.0" width="22.0" height="0.0" fill="#4c78a8"><title>Heuristic V1: propagation + MRV: 0.000</title></rect>
<rect x="582.0" y="400.0" width="22.0" height="0.0" fill="#f58518"><title>Proposed V2: adaptive locked sets: 0.000</title></rect>
<rect x="607.0" y="400.0" width="22.0" height="0.0" fill="#54a24b"><title>Gurobi default: 0.000</title></rect>
<rect x="632.0" y="400.0" width="22.0" height="0.0" fill="#b279a2"><title>Gurobi heuristic mode: 0.000</title></rect>
<text x="799.5" y="430.0" font-family="Arial, sans-serif" font-size="12" text-anchor="middle">expert</text>
<rect x="737.0" y="58.0" width="22.0" height="342.0" fill="#7f8c8d"><title>Plain recursive: 154745.500</title></rect>
<rect x="762.0" y="400.0" width="22.0" height="0.0" fill="#4c78a8"><title>Heuristic V1: propagation + MRV: 1.500</title></rect>
<rect x="787.0" y="400.0" width="22.0" height="0.0" fill="#f58518"><title>Proposed V2: adaptive locked sets: 1.500</title></rect>
<rect x="812.0" y="400.0" width="22.0" height="0.0" fill="#54a24b"><title>Gurobi default: 0.000</title></rect>
<rect x="837.0" y="400.0" width="22.0" height="0.0" fill="#b279a2"><title>Gurobi heuristic mode: 0.000</title></rect>
<rect x="922" y="62" width="315" height="163" fill="#fff" stroke="#ddd"/>
<text x="940.0" y="83.0" font-family="Arial, sans-serif" font-size="12" text-anchor="start">Solver</text>
<rect x="940" y="101" width="13" height="13" fill="#7f8c8d"/>
<text x="961.0" y="112.0" font-family="Arial, sans-serif" font-size="12" text-anchor="start">Plain recursive</text>
<rect x="940" y="126" width="13" height="13" fill="#4c78a8"/>
<text x="961.0" y="137.0" font-family="Arial, sans-serif" font-size="12" text-anchor="start">Heuristic V1: propagation + MRV</text>
<rect x="940" y="151" width="13" height="13" fill="#f58518"/>
<text x="961.0" y="162.0" font-family="Arial, sans-serif" font-size="12" text-anchor="start">Proposed V2: adaptive locked sets</text>
<rect x="940" y="176" width="13" height="13" fill="#54a24b"/>
<text x="961.0" y="187.0" font-family="Arial, sans-serif" font-size="12" text-anchor="start">Gurobi default</text>
<rect x="940" y="201" width="13" height="13" fill="#b279a2"/>
<text x="961.0" y="212.0" font-family="Arial, sans-serif" font-size="12" text-anchor="start">Gurobi heuristic mode</text>
</svg>