<svg xmlns="http://www.w3.org/2000/svg" width="900" height="480" viewBox="0 0 900 480">
<rect width="100%" height="100%" fill="white"/>
<text x="450.0" y="28.0" font-family="Arial, sans-serif" font-size="18" text-anchor="middle">Search effort proxy by difficulty</text>
<line x1="80" y1="375" x2="830" y2="375" stroke="black"/>
<line x1="80" y1="55" x2="80" y2="375" stroke="black"/>
<text transform="rotate(-90 18 215)" x="18.0" y="215.0" font-family="Arial, sans-serif" font-size="12" text-anchor="middle">Median decisions</text>
<line x1="75" y1="375.0" x2="830" y2="375.0" stroke="#ddd"/>
<text x="70.0" y="379.0" font-family="Arial, sans-serif" font-size="10" text-anchor="end">0.0</text>
<line x1="75" y1="295.0" x2="830" y2="295.0" stroke="#ddd"/>
<text x="70.0" y="299.0" font-family="Arial, sans-serif" font-size="10" text-anchor="end">50000.2</text>
<line x1="75" y1="215.0" x2="830" y2="215.0" stroke="#ddd"/>
<text x="70.0" y="219.0" font-family="Arial, sans-serif" font-size="10" text-anchor="end">100000.5</text>
<line x1="75" y1="135.0" x2="830" y2="135.0" stroke="#ddd"/>
<text x="70.0" y="139.0" font-family="Arial, sans-serif" font-size="10" text-anchor="end">150000.8</text>
<line x1="75" y1="55.0" x2="830" y2="55.0" stroke="#ddd"/>
<text x="70.0" y="59.0" font-family="Arial, sans-serif" font-size="10" text-anchor="end">200001.0</text>
<text x="173.8" y="405.0" font-family="Arial, sans-serif" font-size="12" text-anchor="middle">easy</text>
<rect x="125.8" y="375.0" width="21.0" height="0.0" fill="#2ca02c"><title>gurobi_default: 0.000</title></rect>
<rect x="149.8" y="375.0" width="21.0" height="0.0" fill="#d62728"><title>gurobi_heuristics: 0.000</title></rect>
<rect x="173.8" y="374.2" width="21.0" height="0.8" fill="#7f8c8d"><title>leetcode_backtracking: 516.000</title></rect>
<rect x="197.8" y="375.0" width="21.0" height="0.0" fill="#1f77b4"><title>proposed_heuristic: 0.000</title></rect>
<text x="361.2" y="405.0" font-family="Arial, sans-serif" font-size="12" text-anchor="middle">medium</text>
<rect x="313.2" y="375.0" width="21.0" height="0.0" fill="#2ca02c"><title>gurobi_default: 0.000</title></rect>
<rect x="337.2" y="375.0" width="21.0" height="0.0" fill="#d62728"><title>gurobi_heuristics: 0.000</title></rect>
<rect x="361.2" y="365.9" width="21.0" height="9.1" fill="#7f8c8d"><title>leetcode_backtracking: 5673.000</title></rect>
<rect x="385.2" y="375.0" width="21.0" height="0.0" fill="#1f77b4"><title>proposed_heuristic: 0.000</title></rect>
<text x="548.8" y="405.0" font-family="Arial, sans-serif" font-size="12" text-anchor="middle">hard</text>
<rect x="500.8" y="375.0" width="21.0" height="0.0" fill="#2ca02c"><title>gurobi_default: 0.000</title></rect>
<rect x="524.8" y="375.0" width="21.0" height="0.0" fill="#d62728"><title>gurobi_heuristics: 0.000</title></rect>
<rect x="548.8" y="55.0" width="21.0" height="320.0" fill="#7f8c8d"><title>leetcode_backtracking: 200001.000</title></rect>
<rect x="572.8" y="375.0" width="21.0" height="0.0" fill="#1f77b4"><title>proposed_heuristic: 0.000</title></rect>
<text x="736.2" y="405.0" font-family="Arial, sans-serif" font-size="12" text-anchor="middle">expert</text>
<rect x="688.2" y="375.0" width="21.0" height="0.0" fill="#2ca02c"><title>gurobi_default: 0.000</title></rect>
<rect x="712.2" y="375.0" width="21.0" height="0.0" fill="#d62728"><title>gurobi_heuristics: 0.000</title></rect>
<rect x="736.2" y="127.9" width="21.0" height="247.1" fill="#7f8c8d"><title>leetcode_backtracking: 154435.000</title></rect>
<rect x="760.2" y="375.0" width="21.0" height="0.0" fill="#1f77b4"><title>proposed_heuristic: 4.000</title></rect>
<rect x="80" y="430" width="12" height="12" fill="#2ca02c"/>
<text x="98.0" y="440.0" font-family="Arial, sans-serif" font-size="11" text-anchor="start">gurobi_default</text>
<rect x="80" y="450" width="12" height="12" fill="#d62728"/>
<text x="98.0" y="460.0" font-family="Arial, sans-serif" font-size="11" text-anchor="start">gurobi_heuristics</text>
<rect x="80" y="470" width="12" height="12" fill="#7f8c8d"/>
<text x="98.0" y="480.0" font-family="Arial, sans-serif" font-size="11" text-anchor="start">leetcode_backtracking</text>
<rect x="80" y="490" width="12" height="12" fill="#1f77b4"/>
<text x="98.0" y="500.0" font-family="Arial, sans-serif" font-size="11" text-anchor="start">proposed_heuristic</text>
</svg>